<?xml version="1.0" encoding="utf-8"?>
<!-- Generator: Adobe Illustrator 26.0.3, SVG Export Plug-In . SVG Version: 6.00 Build 0)  -->
<svg version="1.0" id="katman_1" xmlns="http://www.w3.org/2000/svg" xmlns:xlink="http://www.w3.org/1999/xlink" x="0px" y="0px"
	 viewBox="0 0 600 450" style="enable-background:new 0 0 600 450;" xml:space="preserve">
<style type="text/css">
	.st0{fill:#010202;}
</style>
<path class="st0" d="M168.4,234.9l-21-33.9h-15.1v48.7h15.1v-33.9l21,33.9h14.9V201h-15.1L168.4,234.9z M287.5,217.4v-4.9h-7.9V206
	h-14.7v6.6h-8v4.9h8v32.3h14.7v-32.3H287.5L287.5,217.4z M191.7,249.6h14.5v-32.3h-14.5V249.6z M191.7,211h14.7v-10h-14.7L191.7,211
	L191.7,211z M447.4,215.1c-11.8,0-21.4,8.1-21.4,18.1c0,10,9.6,18.1,21.3,18.1c11.8,0,21.4-8.1,21.4-18.1
	C468.8,223.2,459.2,215.1,447.4,215.1z M453.3,240c0,5.1-3,7.2-5.9,7.2c-2.9,0-6-2.1-6-7.2v-13.7c0-5.1,3-7.2,6-7.2
	c2.9,0,5.9,2.1,5.9,7.2V240z M407,218.9c-2.4-1.3-4.9-2.6-8.3-2.9c-10.5-0.9-18.6,8.4-18.6,16.9c0,11.3,8.6,15.4,10,16
	c5,2.2,11.3,2.4,16.8-1.2v1.8h14.4V201h-14.4C407,201,407,211.4,407,218.9L407,218.9z M407.1,233.3v5.8c0,5-3.4,6.3-5.8,6.3
	c-2.4,0-5.8-1.3-5.8-6.3v-11.6c0-5,3.4-6.3,5.8-6.3c2.2,0,5.8,1.3,5.8,6.3L407.1,233.3L407.1,233.3z M240.4,215.9
	c-4.8,0.1-8.8,2.2-11.7,4.9v-3.4h-14.5v32.3h14.5v-21.3c0-2.8,3-5.9,6.9-5.9c3.9,0,6.7,3.2,6.7,5.9v21.3H257V232
	C257,219.3,246,215.6,240.4,215.9L240.4,215.9z M359,215.9c-4.4,0.1-8.5,1.9-11.7,4.9v-3.4h-14.5v32.3h14.5v-21.3
	c0-2.8,3-5.9,6.9-5.9c3.9,0,6.7,3.2,6.7,5.9v21.3h14.5V232C375.5,219.3,364.5,215.6,359,215.9L359,215.9z M328.5,233.6
	c0-10-9.7-18.4-21.5-18.4c-11.9,0-21.5,8.1-21.5,18.1c0,10,9.6,18.1,21.5,18.1c9.8,0,18.2-5.6,20.7-13.3h-14.5v2
	c0,5.9-3.9,7.2-6,7.2c-2.2,0-6.2-1.3-6.2-7.2v-6.7L328.5,233.6L328.5,233.6z M302,222.2c1.1-1.8,3-2.9,5.1-2.9c2,0,3.9,0.9,5.1,2.9
	c0.9,1.6,0.9,3.5,0.9,6.3H301C301,225.7,301.1,223.9,302,222.2z M474.6,207.1c0-1.6-1.2-2.4-3.5-2.4h-3.3v8.3h2v-3.4h1l1.6,3.4h2.2
	l-1.8-3.7C473.9,208.9,474.6,208.1,474.6,207.1z M470.8,208.2h-1v-2.4h0.9c1.2,0,1.8,0.4,1.8,1.2C472.5,208,471.9,208.2,470.8,208.2
	z M470.9,201.4c-4.1,0-7.5,3.4-7.5,7.5c0,4.1,3.4,7.5,7.5,7.5s7.5-3.4,7.5-7.5C478.4,204.8,475,201.4,470.9,201.4L470.9,201.4z
	 M470.9,214.9c-3.3,0-6-2.7-6-6c0-3.3,2.8-6,6-6c3.3,0,6,2.8,6,6S474.2,214.9,470.9,214.9L470.9,214.9z M454.5,173.7h-309
	c-32.8-0.1-54.6,23.5-54.6,51.7c0,28.2,21.9,51.6,54.8,51.6h309c32.9,0,54.8-23.4,54.8-51.6C509.3,197.2,487.3,173.7,454.5,173.7z
	 M454.4,264.4H145.6c-26.1,0.1-41.9-17.5-41.9-39c0-21.5,16-38.9,41.9-39h308.8c25.9,0,41.9,17.5,41.9,39
	C496.3,247,480.5,264.4,454.4,264.4L454.4,264.4z"/>
</svg>
